<?xml version="1.0" ?><svg viewBox="0 0 64 64" xmlns="http://www.w3.org/2000/svg"><title/><g data-name="Outline asal" id="Outline_asal"><path d="M32.9668,42.04c-10.9106,0-14.7612-12.6914-15.6821-16.583v-.0009A1.9973,1.9973,0,0,1,19.2324,23h2.95a2.0069,2.0069,0,0,1,1.9522,1.5786A16.4752,16.4752,0,0,0,28,31.623v-4.32l-.7954-1.1933A2,2,0,0,1,28.8687,23H34a1,1,0,0,1,1,1v6.2285a28.5548,28.5548,0,0,0,4.8613-6.2676A1.9775,1.9775,0,0,1,41.57,23h3.5615a2,2,0,0,1,1.6641,3.11l-4.5386,6.8076,5.0445,5.7651A2,2,0,0,1,45.7964,42H41.4141A1.9864,1.9864,0,0,1,40,41.4141L36.293,37.707A3.4956,3.4956,0,0,0,35,36.7935v3.2421A1.997,1.997,0,0,1,32.9668,42.04ZM19.2319,25c.8369,3.5352,4.2974,15.04,13.7359,15.04h.0161L33,36a1,1,0,0,1,.293-.707,2.1014,2.1014,0,0,1,1.457-.543,4.373,4.373,0,0,1,2.957,1.543L41.4141,40h4.3823l-5.5488-6.3413a1,1,0,0,1-.08-1.2134L45.1313,25H41.57c-1.5595,2.583-4.5805,7.0576-7.2534,7.9487A1.0005,1.0005,0,0,1,33,32V25H28.8687l.9633,1.4453A1.0008,1.0008,0,0,1,30,27v7a1,1,0,0,1-1.6245.7808,19.3725,19.3725,0,0,1-6.19-9.7525Z"/><path d="M49,54H15a5.0059,5.0059,0,0,1-5-5V15a5.0059,5.0059,0,0,1,5-5H49a5.0059,5.0059,0,0,1,5,5V49A5.0059,5.0059,0,0,1,49,54ZM15,12a3.0033,3.0033,0,0,0-3,3V49a3.0033,3.0033,0,0,0,3,3H49a3.0033,3.0033,0,0,0,3-3V15a3.0033,3.0033,0,0,0-3-3Z"/></g></svg>