<svg xmlns="http://www.w3.org/2000/svg" viewBox="0 0 64 64" xmlns:v="https://vecta.io/nano"><path d="M32.967 42.04c-10.911 0-14.761-12.691-15.682-16.583v-.001A1.997 1.997 0 0 1 19.232 23h2.95a2.007 2.007 0 0 1 1.952 1.579A16.475 16.475 0 0 0 28 31.623v-4.32l-.795-1.193A2 2 0 0 1 28.869 23H34a1 1 0 0 1 1 1v6.229a28.555 28.555 0 0 0 4.861-6.268A1.978 1.978 0 0 1 41.57 23h3.562a2 2 0 0 1 1.664 3.11l-4.539 6.808 5.044 5.765A2 2 0 0 1 45.796 42h-4.382A1.986 1.986 0 0 1 40 41.414l-3.707-3.707A3.496 3.496 0 0 0 35 36.794v3.242a1.997 1.997 0 0 1-2.033 2.004zM19.232 25c.837 3.535 4.297 15.04 13.736 15.04h.016L33 36a1 1 0 0 1 .293-.707 2.101 2.101 0 0 1 1.457-.543 4.373 4.373 0 0 1 2.957 1.543L41.414 40h4.382l-5.549-6.341a1 1 0 0 1-.08-1.213L45.131 25H41.57c-1.559 2.583-4.581 7.058-7.253 7.949A1.001 1.001 0 0 1 33 32v-7h-4.131l.963 1.445A1.001 1.001 0 0 1 30 27v7a1 1 0 0 1-1.625.781 19.373 19.373 0 0 1-6.19-9.752zM49 54H15a5.006 5.006 0 0 1-5-5V15a5.006 5.006 0 0 1 5-5h34a5.006 5.006 0 0 1 5 5v34a5.006 5.006 0 0 1-5 5zM15 12a3.003 3.003 0 0 0-3 3v34a3.003 3.003 0 0 0 3 3h34a3.003 3.003 0 0 0 3-3V15a3.003 3.003 0 0 0-3-3z"/></svg>