<svg xmlns="http://www.w3.org/2000/svg" width="64" height="64" xmlns:v="https://vecta.io/nano"><path d="M31.832 18.852c-7.902 0-14.45 6.433-14.45 14.445a14.41 14.41 0 0 0 14.45 14.45c8.016 0 14.445-6.548 14.445-14.45S39.73 18.852 31.832 18.852m0 23.703c-5.082 0-9.258-4.176-9.258-9.258s4.176-9.254 9.258-9.254a9.3 9.3 0 0 1 9.254 9.254c0 5.082-4.176 9.258-9.254 9.258m18.285-24.043a3.273 3.273 0 1 0-6.547 0 3.273 3.273 0 1 0 6.547 0m5.192-8.465C52.375 7 48.199 5.418 43.457 5.418H20.203c-9.82 0-16.367 6.547-16.367 16.367v23.14c0 4.852 1.582 9.028 4.742 12.075 3.047 2.938 7.113 4.402 11.738 4.402h23.028c4.855 0 8.918-1.578 11.851-4.402 3.047-2.934 4.63-7.11 4.63-11.965v-23.25c0-4.742-1.583-8.805-4.516-11.738m-.454 34.988c0 3.5-1.238 6.324-3.273 8.242s-4.852 2.934-8.238 2.934H20.316c-3.386 0-6.207-1.016-8.238-2.934-2.031-2.03-3.047-4.855-3.047-8.351v-23.14c0-3.388 1.016-6.208 3.047-8.24 1.918-1.921 4.852-2.937 8.238-2.937H43.57c3.387 0 6.207 1.016 8.239 3.047 1.918 2.035 3.046 4.856 3.046 8.13zm0 0"/></svg>