<svg xmlns="http://www.w3.org/2000/svg" width="64" height="64" xmlns:v="https://vecta.io/nano"><path d="M53.336 35.59c0-3.406-2.797-6.172-6.246-6.172a347 347 0 0 0-15.09-.29 347 347 0 0 0-15.094.29c-3.445 0-6.242 2.766-6.242 6.172a102 102 0 0 0-.289 8.101l.29 8.098c0 3.406 2.796 6.176 6.241 6.176 4.922.203 9.957.293 15.094.285 5.137.008 10.172-.082 15.09-.285 3.45 0 6.246-2.77 6.246-6.176.207-2.7.297-5.398.289-8.098a101.51 101.51 0 0 0-.29-8.101M19.739 52.98h-2.953V36.625h-3.058v-2.777h9.07v2.777h-3.059zm10.512 0h-2.625v-1.554q-.721.86-1.508 1.308-.785.45-1.523.45c-.61 0-1.067-.207-1.371-.63-.309-.417-.465-1.05-.465-1.89V38.867h2.625v10.82q0 .504.164.727c.113.148.289.227.535.227q.292-.001.73-.301.445-.294.813-.758V38.867h2.625zm10.102-2.921q0 1.505-.618 2.304-.615.797-1.78.797-.771.001-1.376-.308c-.398-.207-.773-.524-1.117-.954v1.082H32.81V33.848h2.652v6.16q.528-.646 1.125-.98.597-.339 1.207-.337 1.247 0 1.902.903.657.902.657 2.633zm9.699-3.801h-5.02v2.66q-.001 1.114.262 1.543.257.434.883.434.65 0 .914-.368.258-.362.258-1.609v-.98h2.703V49c0 1.445-.328 2.531-.989 3.266q-.983 1.096-2.945 1.097c-1.176 0-2.097-.386-2.773-1.164q-1.015-1.165-1.016-3.203v-6.332q0-1.841 1.113-2.996 1.114-1.158 2.875-1.156 1.8-.001 2.766 1.07.968 1.072.969 3.082zM33.316 24.457q-.461-.632-.46-1.89V10.77h2.624v10.82c0 .336.055.574.165.726q.165.223.535.223.288 0 .73-.297a3.7 3.7 0 0 0 .813-.758V10.77h2.62v14.113h-2.62v-1.559q-.727.861-1.512 1.313-.785.45-1.523.449-.909.002-1.372-.629m-10.304-3.145q0 1.802 1.031 2.864 1.036 1.064 2.758 1.062c1.191 0 2.125-.34 2.808-1.031q1.02-1.029 1.02-2.844v-7.289c0-1.074-.348-1.957-1.04-2.636q-1.041-1.027-2.671-1.028-1.786.002-2.848.977-1.06.967-1.058 2.61zm2.699-7.421q.002-.463.3-.75.301-.282.782-.282c.348 0 .625.094.84.282q.321.287.32.75v7.687q0 .569-.312.89c-.211.22-.496.325-.848.325s-.613-.102-.8-.316q-.282-.317-.282-.899zM37.37 41.3q.276.373.277 1.086v7.289q.001.674-.226.972-.228.295-.707.297-.334 0-.633-.152c-.2-.102-.41-.27-.621-.496V41.5q.264-.29.539-.43.274-.14.555-.14.531.001.816.37m9.703.067q.275.383.274 1.27v1.425H45.03v-1.425q-.001-.887.274-1.27.27-.387.898-.387.6 0 .871.387M16.75 17.301L13.234 5.75h2.977l1.918 7.648h.183l1.833-7.648h3l-3.442 11.195v7.938H16.75zm0 0"/></svg>