<svg xmlns="http://www.w3.org/2000/svg" viewBox="0 0 32 32" fill="#231f20" xmlns:v="https://vecta.io/nano"><path d="M18.74 11a1 1 0 0 0-.87-.49H8a1 1 0 0 0-.9.49l-5 9a1 1 0 0 0 .39 1.36 1 1 0 0 0 .51.14 1 1 0 0 0 .86-.5l4.7-8.48h7.62l-3.88 7H6a1 1 0 0 0 0 2h6.88a1 1 0 0 0 .88-.52l5-9a1 1 0 0 0-.02-1zm10.6 6.94a1 1 0 0 0-1.27.62c-.19.54-.54.92-.86.92-.47 0-1-.77-1-1.8s.53-1.8 1-1.8c.32 0 .67.38.86.93a1.018 1.018 0 0 0 1.93-.65 3.06 3.06 0 0 0-2.75-2.28 3.07 3.07 0 0 0-2.79 2.44 3.09 3.09 0 0 0-2.8-2.44 2.47 2.47 0 0 0-.81.15V12.5a1 1 0 0 0-2 0v8a1 1 0 0 0 1.71.71 2.45 2.45 0 0 0 1.1.27A3.08 3.08 0 0 0 24.42 19a3.06 3.06 0 0 0 2.79 2.44A3 3 0 0 0 30 19.21a1 1 0 0 0-.66-1.27zm-7.72 1.54c-.3 0-.61-.32-.81-.8v-2c.2-.48.51-.81.81-.81.47 0 1 .77 1 1.8s-.53 1.81-1 1.81z"/></svg>