<svg xmlns="http://www.w3.org/2000/svg" width="64" height="64" fill="#062b31" xmlns:v="https://vecta.io/nano"><path d="M48.273 7a4.96 4.96 0 0 1 5 4.945V55l-5.222-4.559-2.957-2.691L42 44.895l1.29 4.44H15.726a5 5 0 0 1-3.532-1.433 4.96 4.96 0 0 1-1.468-3.511V11.945A4.96 4.96 0 0 1 15.727 7zm0-3.25H15.727A8.22 8.22 0 0 0 7.5 11.945v32.45a8.22 8.22 0 0 0 8.23 8.195h29.836l.274.254.031.027h.027l5.227 4.559 5.375 4.718V11.945a8.22 8.22 0 0 0-8.227-8.195M37.148 36.555l1.606 1.945c5.371-.172 7.437-3.648 7.437-3.648a31.86 31.86 0 0 0-3.5-14 12.1 12.1 0 0 0-6.828-2.5l-.34.382c4.133 1.25 6.051 3.051 6.051 3.051a19.9 19.9 0 0 0-7.308-2.305 20.8 20.8 0 0 0-4.907.051q-.21.006-.414.047a18.5 18.5 0 0 0-5.5 1.5L22 21.773s2-1.894 6.39-3.144l-.245-.29a12.15 12.15 0 0 0-6.825 2.5 31.8 31.8 0 0 0-3.5 14s2.04 3.5 7.41 3.65l1.63-2c-3.087-.91-4.25-2.829-4.25-2.829s.245.168.68.41q.039.042.097.07c.074.051.144.07.218.122.57.308 1.165.582 1.774.812a20.24 20.24 0 0 0 3.57 1.031c2.078.387 4.211.387 6.29 0a16 16 0 0 0 3.5-1.03 13.83 13.83 0 0 0 2.796-1.415s-1.2 2.012-4.387 2.895m-9-3.344c-1.347 0-2.457-1.234-2.457-2.746a2.48 2.48 0 0 1 1.133-2.387 2.474 2.474 0 0 1 3.781 2.387 2.61 2.61 0 0 1-.66 1.887 2.6 2.6 0 0 1-1.804.863zm8.797 0C35.59 33.215 34.5 32 34.5 30.469a2.47 2.47 0 0 1 2.64-2.196 2.473 2.473 0 0 1-.18 4.942zm0 0"/></svg>