<svg xmlns="http://www.w3.org/2000/svg" height="24" width="24" xmlns:v="https://vecta.io/nano"><circle cx="12" cy="11.998" fill="#8c9eff" r="11"/><path d="M16.775 8.438s-1.361-1.065-2.969-1.187l-.145.29c1.454.356 2.12.865 2.817 1.492-1.201-.613-2.387-1.187-4.453-1.187s-3.252.575-4.453 1.188c.696-.626 1.49-1.192 2.817-1.492l-.145-.29c-1.686.159-2.969 1.188-2.969 1.188s-1.52 2.204-1.781 6.531c1.532 1.767 3.859 1.781 3.859 1.781l.487-.649c-.826-.287-1.759-.8-2.565-1.726.961.727 2.412 1.484 4.75 1.484s3.789-.757 4.75-1.484c-.806.927-1.739 1.439-2.565 1.726l.487.649s2.327-.014 3.859-1.781c-.261-4.327-1.781-6.531-1.781-6.531zm-6.68 5.344c-.574 0-1.039-.532-1.039-1.187s.465-1.187 1.039-1.187 1.039.532 1.039 1.188-.465 1.188-1.039 1.188zm3.859 0c-.574 0-1.039-.532-1.039-1.187s.465-1.187 1.039-1.187 1.039.532 1.039 1.188-.465 1.188-1.039 1.188z" fill="#fff"/><path d="M4.222 19.778C6.212 21.769 8.962 23 12 23c6.075 0 11-4.925 11-11 0-3.038-1.231-5.788-3.222-7.778L4.222 19.778z" fill="#231f20" opacity=".1"/></svg>