<svg xmlns="http://www.w3.org/2000/svg" height="100" width="100" xmlns:v="https://vecta.io/nano"><circle cx="50" cy="50.001" fill="#f99400" r="45"/><path d="M45.724 59.257c-1.623-.377-3.136-.922-4.574-1.662l-1.514-.857c-1.451-.906-1.902-2.775-1.03-4.213.897-1.477 2.756-1.957 4.24-1.057 1.46.883 3.007 1.525 4.688 1.828 3.308.594 6.416.047 9.312-1.656.591-.348 1.188-.621 1.893-.617 1.367.008 2.564.883 2.961 2.184.399 1.311-.098 2.73-1.259 3.477-1.809 1.164-3.768 1.984-5.854 2.498l-.304.08.221.234 5.561 5.562c1.083 1.086 1.311 2.576.592 3.818-1.035 1.789-3.415 2.086-4.906.604l-5.527-5.525-.275-.297c-.061.109-.094.215-.162.283l-5.543 5.545c-1.271 1.268-3.212 1.26-4.442-.004-1.125-1.156-1.157-2.992-.069-4.205l.463-.479 5.309-5.311.219-.23zm4.281-29.69c5.805 0 10.541 4.738 10.54 10.543-.001 5.812-4.692 10.543-10.536 10.545-5.877.006-10.544-4.732-10.553-10.525-.01-5.813 4.693-10.547 10.549-10.563zm4.357 10.553c.002-2.402-1.941-4.361-4.331-4.367-2.422-.006-4.395 1.936-4.399 4.328s1.939 4.391 4.284 4.393c2.485.002 4.444-1.916 4.446-4.354z" fill="#fff" fill-rule="evenodd"/></svg>