<?xml version="1.0" ?><!DOCTYPE svg  PUBLIC '-//W3C//DTD SVG 1.0//EN'  'http://www.w3.org/TR/2001/REC-SVG-20010904/DTD/svg10.dtd'><svg enable-background="new 0 0 32 32" height="32px" id="Layer_1" version="1.0" viewBox="0 0 32 32" width="32px" xml:space="preserve" xmlns="http://www.w3.org/2000/svg" xmlns:xlink="http://www.w3.org/1999/xlink"><g><circle clip-rule="evenodd" cx="16" cy="16" fill="#44546A" fill-rule="evenodd" r="16"/><path d="M19.435,23.347c-0.64,0-1.206-0.149-1.704-0.447C17.354,22.677,17,22.206,17,21.8s0-0.699,0-2v-6h5v-4h-5   v-5h-4c0,0.576,0,2,0,2c0,2.209-1.791,4-4,4v3h3v8c0,1.026-0.031,1.828,0.15,2.284c0.216,0.541,0.485,1.022,1.041,1.503   c0.558,0.478,0.998,0.765,1.787,1.023c0.863,0.285,1.775,0.39,2.72,0.39c0.903,0,1.744-0.091,2.521-0.272   c0.777-0.182,1.848-0.544,2.781-1.128v-3.5C21.892,22.96,20.57,23.347,19.435,23.347z" fill="#FFFFFF"/></g><g/><g/><g/><g/><g/><g/></svg>